<svg width="224" height="67" viewBox="0 0 224 67" fill="none" xmlns="http://www.w3.org/2000/svg">
<rect width="224" height="67" rx="5" fill="black"/>
<path fill-rule="evenodd" clip-rule="evenodd" d="M21 17.0029V50.0687C21 50.4343 21.0942 50.7677 21.2558 51.0532L21.1736 51.1189L21.7983 51.8998L21.9554 51.7742C22.5336 52.1281 23.2878 52.1934 23.9648 51.8206L47.5284 38.8433C47.712 38.925 47.9348 38.8906 48.0855 38.74C48.1647 38.6608 48.2117 38.5616 48.2267 38.4587L53.8047 35.3867C55.1809 34.6287 55.1859 32.6527 53.8136 31.8878L23.9737 15.2559C22.6406 14.5129 21 15.4767 21 17.0029ZM48.2267 38.4587C48.2486 38.3078 48.2015 38.1489 48.0855 38.0329L44.1018 34.0492L49.0206 30.0247C49.2343 29.8499 49.2658 29.5349 49.091 29.3211C48.9161 29.1074 48.6011 29.0759 48.3874 29.2508L43.362 33.3625L22.2938 15.6461C22.0825 15.4684 21.7671 15.4956 21.5893 15.707C21.4116 15.9183 21.4389 16.2337 21.6502 16.4114L42.5693 34.0025L21.2558 51.0532C21.4252 51.3523 21.6687 51.5987 21.9554 51.7742L43.3205 34.6821L47.3784 38.74C47.423 38.7846 47.474 38.819 47.5284 38.8433L48.2267 38.4587Z" fill="white"/>
<path d="M74.838 15.744C75.93 15.744 76.84 16.0127 77.568 16.55C78.296 17.0873 78.777 17.8197 79.011 18.747H77.451C77.2517 18.253 76.9223 17.8587 76.463 17.564C76.0123 17.2693 75.475 17.122 74.851 17.122C74.279 17.122 73.7633 17.2563 73.304 17.525C72.8533 17.7937 72.498 18.175 72.238 18.669C71.9867 19.163 71.861 19.7437 71.861 20.411C71.861 21.113 71.991 21.7153 72.251 22.218C72.511 22.7207 72.875 23.1063 73.343 23.375C73.8197 23.635 74.37 23.765 74.994 23.765C75.7567 23.765 76.411 23.531 76.957 23.063C77.503 22.5863 77.8323 21.9363 77.945 21.113H74.578V20.021H79.193V21.438C79.089 22.114 78.8463 22.7293 78.465 23.284C78.0923 23.83 77.594 24.2677 76.97 24.597C76.3547 24.9263 75.6483 25.091 74.851 25.091C73.9583 25.091 73.1697 24.8917 72.485 24.493C71.8003 24.0943 71.2717 23.544 70.899 22.842C70.5263 22.1313 70.34 21.321 70.34 20.411C70.34 19.501 70.5263 18.695 70.899 17.993C71.2717 17.2823 71.796 16.732 72.472 16.342C73.1567 15.9433 73.9453 15.744 74.838 15.744ZM82.1757 17.018V19.8H85.5557V20.944H82.1757V23.791H85.9457V25H80.6937V15.822H85.9457V17.018H82.1757ZM93.2861 15.822V17.018H90.7251V25H89.2301V17.018H86.6821V15.822H93.2861ZM98.9208 15.822V25H97.4388V15.822H98.9208ZM106.616 15.822V17.018H104.055V25H102.56V17.018H100.012V15.822H106.616ZM115.02 15.705C115.869 15.705 116.636 15.9043 117.321 16.303C118.014 16.7017 118.556 17.2607 118.946 17.98C119.345 18.6907 119.544 19.4967 119.544 20.398C119.544 21.2993 119.345 22.1097 118.946 22.829C118.556 23.5397 118.014 24.0987 117.321 24.506C116.636 24.9047 115.869 25.104 115.02 25.104C114.162 25.104 113.386 24.9047 112.693 24.506C112.008 24.0987 111.467 23.5397 111.068 22.829C110.669 22.1097 110.47 21.2993 110.47 20.398C110.47 19.4967 110.669 18.6907 111.068 17.98C111.467 17.2607 112.008 16.7017 112.693 16.303C113.386 15.9043 114.162 15.705 115.02 15.705ZM115.02 17.083C114.431 17.083 113.906 17.2173 113.447 17.486C112.988 17.7547 112.628 18.1403 112.368 18.643C112.117 19.1457 111.991 19.7307 111.991 20.398C111.991 21.0653 112.117 21.6503 112.368 22.153C112.628 22.6557 112.988 23.0413 113.447 23.31C113.906 23.5787 114.431 23.713 115.02 23.713C115.601 23.713 116.116 23.5787 116.567 23.31C117.026 23.0413 117.382 22.6557 117.633 22.153C117.893 21.6503 118.023 21.0653 118.023 20.398C118.023 19.7307 117.893 19.1457 117.633 18.643C117.382 18.1403 117.026 17.7547 116.567 17.486C116.116 17.2173 115.601 17.083 115.02 17.083ZM128.462 25H126.98L122.521 18.227V25H121.039V15.835H122.521L126.98 22.634V15.835H128.462V25Z" fill="white"/>
<path d="M76.562 34.74C78.282 34.74 79.7087 35.1667 80.842 36.02C81.9753 36.86 82.702 38 83.022 39.44H80.062C79.782 38.8 79.3353 38.2933 78.722 37.92C78.122 37.5333 77.4087 37.34 76.582 37.34C75.7687 37.34 75.0487 37.5267 74.422 37.9C73.7953 38.2733 73.3087 38.8067 72.962 39.5C72.6153 40.1933 72.442 41.0067 72.442 41.94C72.442 43.42 72.8353 44.5733 73.622 45.4C74.422 46.2267 75.5087 46.64 76.882 46.64C77.8953 46.64 78.762 46.34 79.482 45.74C80.2153 45.14 80.6887 44.3067 80.902 43.24H76.122V41.22H83.262V43.94C83.062 44.8733 82.6687 45.7333 82.082 46.52C81.5087 47.3067 80.7487 47.94 79.802 48.42C78.8687 48.8867 77.7953 49.12 76.582 49.12C75.1953 49.12 73.9687 48.82 72.902 48.22C71.8487 47.6067 71.0287 46.76 70.442 45.68C69.8687 44.5867 69.582 43.34 69.582 41.94C69.582 40.54 69.8687 39.3 70.442 38.22C71.0287 37.1267 71.8487 36.2733 72.902 35.66C73.9553 35.0467 75.1753 34.74 76.562 34.74ZM90.4936 37.78C91.5736 37.78 92.5402 38.0067 93.3936 38.46C94.2602 38.9133 94.9402 39.5733 95.4336 40.44C95.9269 41.2933 96.1736 42.3 96.1736 43.46C96.1736 44.62 95.9269 45.6267 95.4336 46.48C94.9402 47.3333 94.2602 47.9933 93.3936 48.46C92.5402 48.9133 91.5736 49.14 90.4936 49.14C89.4136 49.14 88.4402 48.9133 87.5736 48.46C86.7202 47.9933 86.0469 47.3333 85.5536 46.48C85.0602 45.6267 84.8136 44.62 84.8136 43.46C84.8136 42.3 85.0602 41.2933 85.5536 40.44C86.0469 39.5733 86.7202 38.9133 87.5736 38.46C88.4402 38.0067 89.4136 37.78 90.4936 37.78ZM90.4936 40.22C89.7069 40.22 89.0402 40.5 88.4936 41.06C87.9469 41.6067 87.6736 42.4067 87.6736 43.46C87.6736 44.5133 87.9469 45.32 88.4936 45.88C89.0402 46.4267 89.7069 46.7 90.4936 46.7C91.2802 46.7 91.9469 46.4267 92.4936 45.88C93.0402 45.32 93.3136 44.5133 93.3136 43.46C93.3136 42.4067 93.0402 41.6067 92.4936 41.06C91.9469 40.5 91.2802 40.22 90.4936 40.22ZM103.287 37.78C104.367 37.78 105.333 38.0067 106.187 38.46C107.053 38.9133 107.733 39.5733 108.227 40.44C108.72 41.2933 108.967 42.3 108.967 43.46C108.967 44.62 108.72 45.6267 108.227 46.48C107.733 47.3333 107.053 47.9933 106.187 48.46C105.333 48.9133 104.367 49.14 103.287 49.14C102.207 49.14 101.233 48.9133 100.367 48.46C99.5132 47.9933 98.8399 47.3333 98.3465 46.48C97.8532 45.6267 97.6065 44.62 97.6065 43.46C97.6065 42.3 97.8532 41.2933 98.3465 40.44C98.8399 39.5733 99.5132 38.9133 100.367 38.46C101.233 38.0067 102.207 37.78 103.287 37.78ZM103.287 40.22C102.5 40.22 101.833 40.5 101.287 41.06C100.74 41.6067 100.467 42.4067 100.467 43.46C100.467 44.5133 100.74 45.32 101.287 45.88C101.833 46.4267 102.5 46.7 103.287 46.7C104.073 46.7 104.74 46.4267 105.287 45.88C105.833 45.32 106.107 44.5133 106.107 43.46C106.107 42.4067 105.833 41.6067 105.287 41.06C104.74 40.5 104.073 40.22 103.287 40.22ZM115.3 37.78C116.233 37.78 117.033 38 117.7 38.44C118.366 38.88 118.84 39.4733 119.12 40.22V37.92H121.92V49.04C121.92 50.0667 121.713 50.9867 121.3 51.8C120.9 52.6267 120.293 53.2733 119.48 53.74C118.68 54.2067 117.706 54.44 116.56 54.44C114.96 54.44 113.666 54.06 112.68 53.3C111.693 52.54 111.093 51.5067 110.88 50.2H113.66C113.82 50.76 114.126 51.1933 114.58 51.5C115.046 51.82 115.64 51.98 116.36 51.98C117.186 51.98 117.853 51.7333 118.36 51.24C118.866 50.76 119.12 50.0267 119.12 49.04V46.68C118.84 47.4267 118.366 48.0267 117.7 48.48C117.033 48.92 116.233 49.14 115.3 49.14C114.366 49.14 113.526 48.9133 112.78 48.46C112.033 48.0067 111.446 47.3533 111.02 46.5C110.606 45.6333 110.4 44.62 110.4 43.46C110.4 42.3 110.606 41.2933 111.02 40.44C111.446 39.5733 112.033 38.9133 112.78 38.46C113.526 38.0067 114.366 37.78 115.3 37.78ZM116.18 40.24C115.3 40.24 114.593 40.5267 114.06 41.1C113.526 41.6733 113.26 42.46 113.26 43.46C113.26 44.46 113.526 45.2467 114.06 45.82C114.593 46.38 115.3 46.66 116.18 46.66C117.033 46.66 117.733 46.3733 118.28 45.8C118.84 45.2133 119.12 44.4333 119.12 43.46C119.12 42.4733 118.84 41.6933 118.28 41.12C117.733 40.5333 117.033 40.24 116.18 40.24ZM127.295 34.2V49H124.475V34.2H127.295ZM140.266 43.04C140.266 43.32 140.233 43.64 140.166 44H132.046C132.086 44.9867 132.353 45.7133 132.846 46.18C133.34 46.6467 133.953 46.88 134.686 46.88C135.34 46.88 135.88 46.72 136.306 46.4C136.746 46.08 137.026 45.6467 137.146 45.1H140.126C139.98 45.8733 139.666 46.5667 139.186 47.18C138.706 47.7933 138.086 48.2733 137.326 48.62C136.58 48.9667 135.746 49.14 134.826 49.14C133.746 49.14 132.786 48.9133 131.946 48.46C131.106 47.9933 130.453 47.3333 129.986 46.48C129.52 45.6267 129.286 44.62 129.286 43.46C129.286 42.3 129.52 41.2933 129.986 40.44C130.453 39.5733 131.106 38.9133 131.946 38.46C132.786 38.0067 133.746 37.78 134.826 37.78C135.92 37.78 136.873 38.0067 137.686 38.46C138.513 38.9133 139.146 39.54 139.586 40.34C140.04 41.1267 140.266 42.0267 140.266 43.04ZM137.426 42.76C137.466 41.8533 137.226 41.1667 136.706 40.7C136.2 40.2333 135.573 40 134.826 40C134.066 40 133.426 40.2333 132.906 40.7C132.386 41.1667 132.1 41.8533 132.046 42.76H137.426ZM149.444 43.76V49H146.624V34.88H151.764C153.43 34.88 154.684 35.28 155.524 36.08C156.377 36.88 156.804 37.9667 156.804 39.34C156.804 40.6867 156.364 41.76 155.484 42.56C154.617 43.36 153.377 43.76 151.764 43.76H149.444ZM151.464 41.5C153.117 41.5 153.944 40.78 153.944 39.34C153.944 38.6333 153.75 38.0933 153.364 37.72C152.977 37.3467 152.344 37.16 151.464 37.16H149.444V41.5H151.464ZM161.455 34.2V49H158.635V34.2H161.455ZM168.346 37.78C169.28 37.78 170.08 38 170.746 38.44C171.413 38.88 171.886 39.4733 172.166 40.22V37.92H174.966V49H172.166V46.68C171.886 47.4267 171.413 48.0267 170.746 48.48C170.08 48.92 169.28 49.14 168.346 49.14C167.413 49.14 166.573 48.9133 165.826 48.46C165.08 48.0067 164.493 47.3533 164.066 46.5C163.653 45.6333 163.446 44.62 163.446 43.46C163.446 42.3 163.653 41.2933 164.066 40.44C164.493 39.5733 165.08 38.9133 165.826 38.46C166.573 38.0067 167.413 37.78 168.346 37.78ZM169.226 40.24C168.346 40.24 167.64 40.5267 167.106 41.1C166.573 41.6733 166.306 42.46 166.306 43.46C166.306 44.46 166.573 45.2467 167.106 45.82C167.64 46.38 168.346 46.66 169.226 46.66C170.08 46.66 170.78 46.3733 171.326 45.8C171.886 45.2133 172.166 44.4333 172.166 43.46C172.166 42.4733 171.886 41.6933 171.326 41.12C170.78 40.5333 170.08 40.24 169.226 40.24ZM179.422 37.92L182.442 45.44L185.242 37.92H188.342L181.562 54.28H178.442L180.942 48.68L176.282 37.92H179.422Z" fill="white"/>
</svg>
