<svg width="224" height="67" viewBox="0 0 224 67" fill="none" xmlns="http://www.w3.org/2000/svg">
<rect width="224" height="67" rx="5" fill="black"/>
<path d="M84.775 20.398C84.775 21.3253 84.5843 22.1357 84.203 22.829C83.8303 23.5137 83.28 24.0467 82.552 24.428C81.8327 24.8093 80.9703 25 79.965 25H76.897V15.822H79.965C80.9703 15.822 81.8327 16.0127 82.552 16.394C83.28 16.7667 83.8303 17.2953 84.203 17.98C84.5843 18.6647 84.775 19.4707 84.775 20.398ZM79.848 23.661C80.9487 23.661 81.7937 23.375 82.383 22.803C82.9723 22.231 83.267 21.4293 83.267 20.398C83.267 19.3667 82.9723 18.565 82.383 17.993C81.7937 17.421 80.9487 17.135 79.848 17.135H78.379V23.661H79.848ZM90.5171 15.705C91.3665 15.705 92.1335 15.9043 92.8181 16.303C93.5115 16.7017 94.0531 17.2607 94.4431 17.98C94.8418 18.6907 95.0411 19.4967 95.0411 20.398C95.0411 21.2993 94.8418 22.1097 94.4431 22.829C94.0531 23.5397 93.5115 24.0987 92.8181 24.506C92.1335 24.9047 91.3665 25.104 90.5171 25.104C89.6591 25.104 88.8835 24.9047 88.1901 24.506C87.5055 24.0987 86.9638 23.5397 86.5651 22.829C86.1665 22.1097 85.9671 21.2993 85.9671 20.398C85.9671 19.4967 86.1665 18.6907 86.5651 17.98C86.9638 17.2607 87.5055 16.7017 88.1901 16.303C88.8835 15.9043 89.6591 15.705 90.5171 15.705ZM90.5171 17.083C89.9278 17.083 89.4035 17.2173 88.9441 17.486C88.4848 17.7547 88.1251 18.1403 87.8651 18.643C87.6138 19.1457 87.4881 19.7307 87.4881 20.398C87.4881 21.0653 87.6138 21.6503 87.8651 22.153C88.1251 22.6557 88.4848 23.0413 88.9441 23.31C89.4035 23.5787 89.9278 23.713 90.5171 23.713C91.0978 23.713 91.6135 23.5787 92.0641 23.31C92.5235 23.0413 92.8788 22.6557 93.1301 22.153C93.3901 21.6503 93.5201 21.0653 93.5201 20.398C93.5201 19.7307 93.3901 19.1457 93.1301 18.643C92.8788 18.1403 92.5235 17.7547 92.0641 17.486C91.6135 17.2173 91.0978 17.083 90.5171 17.083ZM108.159 15.822L105.871 25H104.051L102.114 17.902L100.177 25H98.3566L96.0686 15.822H97.6936L99.2796 23.284L101.295 15.822H102.933L104.948 23.284L106.534 15.822H108.159ZM116.909 25H115.427L110.968 18.227V25H109.486V15.835H110.968L115.427 22.634V15.835H116.909V25ZM120.185 23.843H123.357V25H118.703V15.822H120.185V23.843ZM128.768 15.705C129.617 15.705 130.384 15.9043 131.069 16.303C131.762 16.7017 132.304 17.2607 132.694 17.98C133.093 18.6907 133.292 19.4967 133.292 20.398C133.292 21.2993 133.093 22.1097 132.694 22.829C132.304 23.5397 131.762 24.0987 131.069 24.506C130.384 24.9047 129.617 25.104 128.768 25.104C127.91 25.104 127.134 24.9047 126.441 24.506C125.756 24.0987 125.215 23.5397 124.816 22.829C124.417 22.1097 124.218 21.2993 124.218 20.398C124.218 19.4967 124.417 18.6907 124.816 17.98C125.215 17.2607 125.756 16.7017 126.441 16.303C127.134 15.9043 127.91 15.705 128.768 15.705ZM128.768 17.083C128.179 17.083 127.654 17.2173 127.195 17.486C126.736 17.7547 126.376 18.1403 126.116 18.643C125.865 19.1457 125.739 19.7307 125.739 20.398C125.739 21.0653 125.865 21.6503 126.116 22.153C126.376 22.6557 126.736 23.0413 127.195 23.31C127.654 23.5787 128.179 23.713 128.768 23.713C129.349 23.713 129.864 23.5787 130.315 23.31C130.774 23.0413 131.13 22.6557 131.381 22.153C131.641 21.6503 131.771 21.0653 131.771 20.398C131.771 19.7307 131.641 19.1457 131.381 18.643C131.13 18.1403 130.774 17.7547 130.315 17.486C129.864 17.2173 129.349 17.083 128.768 17.083ZM140.261 23.011H136.387L135.685 25H134.099L137.479 15.965H139.182L142.549 25H140.963L140.261 23.011ZM139.845 21.867L138.324 17.577L136.803 21.867H139.845ZM151.527 20.398C151.527 21.3253 151.336 22.1357 150.955 22.829C150.582 23.5137 150.032 24.0467 149.304 24.428C148.585 24.8093 147.722 25 146.717 25H143.649V15.822H146.717C147.722 15.822 148.585 16.0127 149.304 16.394C150.032 16.7667 150.582 17.2953 150.955 17.98C151.336 18.6647 151.527 19.4707 151.527 20.398ZM146.6 23.661C147.701 23.661 148.546 23.375 149.135 22.803C149.724 22.231 150.019 21.4293 150.019 20.398C150.019 19.3667 149.724 18.565 149.135 17.993C148.546 17.421 147.701 17.135 146.6 17.135H145.131V23.661H146.6ZM160.316 15.705C161.165 15.705 161.932 15.9043 162.617 16.303C163.31 16.7017 163.852 17.2607 164.242 17.98C164.641 18.6907 164.84 19.4967 164.84 20.398C164.84 21.2993 164.641 22.1097 164.242 22.829C163.852 23.5397 163.31 24.0987 162.617 24.506C161.932 24.9047 161.165 25.104 160.316 25.104C159.458 25.104 158.682 24.9047 157.989 24.506C157.304 24.0987 156.763 23.5397 156.364 22.829C155.965 22.1097 155.766 21.2993 155.766 20.398C155.766 19.4967 155.965 18.6907 156.364 17.98C156.763 17.2607 157.304 16.7017 157.989 16.303C158.682 15.9043 159.458 15.705 160.316 15.705ZM160.316 17.083C159.727 17.083 159.202 17.2173 158.743 17.486C158.284 17.7547 157.924 18.1403 157.664 18.643C157.413 19.1457 157.287 19.7307 157.287 20.398C157.287 21.0653 157.413 21.6503 157.664 22.153C157.924 22.6557 158.284 23.0413 158.743 23.31C159.202 23.5787 159.727 23.713 160.316 23.713C160.897 23.713 161.412 23.5787 161.863 23.31C162.322 23.0413 162.678 22.6557 162.929 22.153C163.189 21.6503 163.319 21.0653 163.319 20.398C163.319 19.7307 163.189 19.1457 162.929 18.643C162.678 18.1403 162.322 17.7547 161.863 17.486C161.412 17.2173 160.897 17.083 160.316 17.083ZM173.758 25H172.276L167.817 18.227V25H166.335V15.835H167.817L172.276 22.634V15.835H173.758V25ZM184.501 15.822V17.018H181.94V25H180.445V17.018H177.897V15.822H184.501ZM192.9 15.822V25H191.405V20.879H187.089V25H185.607V15.822H187.089V19.67H191.405V15.822H192.9ZM196.179 17.018V19.8H199.559V20.944H196.179V23.791H199.949V25H194.697V15.822H199.949V17.018H196.179Z" fill="white"/>
<path d="M87.856 45.592H81.064L79.864 49H76.288L82.528 32.248H86.392L92.608 49H89.032L87.856 45.592ZM86.944 43.024L84.448 35.872L81.952 43.024H86.944ZM102.378 35.536C103.498 35.536 104.506 35.808 105.402 36.352C106.298 36.896 106.994 37.688 107.49 38.728C108.002 39.752 108.258 40.96 108.258 42.352C108.258 43.744 108.002 44.96 107.49 46C106.994 47.024 106.298 47.808 105.402 48.352C104.506 48.896 103.498 49.168 102.378 49.168C101.258 49.168 100.298 48.904 99.4984 48.376C98.7144 47.832 98.1544 47.112 97.8184 46.216V55.336H94.4344V35.704H97.8184V38.464C98.1544 37.568 98.7144 36.856 99.4984 36.328C100.298 35.8 101.258 35.536 102.378 35.536ZM101.322 38.488C100.298 38.488 99.4504 38.84 98.7784 39.544C98.1224 40.232 97.7944 41.168 97.7944 42.352C97.7944 43.52 98.1224 44.456 98.7784 45.16C99.4504 45.848 100.298 46.192 101.322 46.192C102.378 46.192 103.226 45.856 103.866 45.184C104.506 44.496 104.826 43.552 104.826 42.352C104.826 41.152 104.506 40.208 103.866 39.52C103.226 38.832 102.378 38.488 101.322 38.488ZM118.597 35.536C119.717 35.536 120.725 35.808 121.621 36.352C122.517 36.896 123.213 37.688 123.709 38.728C124.221 39.752 124.477 40.96 124.477 42.352C124.477 43.744 124.221 44.96 123.709 46C123.213 47.024 122.517 47.808 121.621 48.352C120.725 48.896 119.717 49.168 118.597 49.168C117.477 49.168 116.517 48.904 115.717 48.376C114.933 47.832 114.373 47.112 114.037 46.216V55.336H110.653V35.704H114.037V38.464C114.373 37.568 114.933 36.856 115.717 36.328C116.517 35.8 117.477 35.536 118.597 35.536ZM117.541 38.488C116.517 38.488 115.669 38.84 114.997 39.544C114.341 40.232 114.013 41.168 114.013 42.352C114.013 43.52 114.341 44.456 114.997 45.16C115.669 45.848 116.517 46.192 117.541 46.192C118.597 46.192 119.445 45.856 120.085 45.184C120.725 44.496 121.045 43.552 121.045 42.352C121.045 41.152 120.725 40.208 120.085 39.52C119.445 38.832 118.597 38.488 117.541 38.488ZM143.739 44.368C143.739 45.232 143.523 46.032 143.091 46.768C142.659 47.488 142.019 48.072 141.171 48.52C140.323 48.952 139.291 49.168 138.075 49.168C136.875 49.168 135.803 48.968 134.859 48.568C133.915 48.152 133.155 47.56 132.579 46.792C132.019 46.024 131.699 45.128 131.619 44.104H135.219C135.299 44.792 135.571 45.368 136.035 45.832C136.515 46.28 137.147 46.504 137.931 46.504C138.635 46.504 139.171 46.32 139.539 45.952C139.923 45.568 140.115 45.08 140.115 44.488C140.115 43.96 139.963 43.528 139.659 43.192C139.355 42.84 138.971 42.56 138.507 42.352C138.043 42.144 137.403 41.904 136.587 41.632C135.531 41.28 134.667 40.936 133.995 40.6C133.323 40.248 132.747 39.744 132.267 39.088C131.803 38.432 131.571 37.576 131.571 36.52C131.571 35.064 132.091 33.92 133.131 33.088C134.187 32.24 135.579 31.816 137.307 31.816C139.099 31.816 140.523 32.248 141.579 33.112C142.651 33.976 143.259 35.128 143.403 36.568H139.755C139.659 35.96 139.403 35.464 138.987 35.08C138.571 34.68 138.003 34.48 137.283 34.48C136.659 34.48 136.155 34.648 135.771 34.984C135.387 35.304 135.195 35.776 135.195 36.4C135.195 36.896 135.339 37.312 135.627 37.648C135.931 37.968 136.307 38.232 136.755 38.44C137.219 38.648 137.843 38.88 138.627 39.136C139.715 39.52 140.595 39.88 141.267 40.216C141.955 40.552 142.539 41.056 143.019 41.728C143.499 42.4 143.739 43.28 143.739 44.368ZM153.335 46.096V49H151.559C150.071 49 148.927 48.64 148.127 47.92C147.343 47.2 146.951 46 146.951 44.32V38.56H145.103V35.704H146.951V32.416H150.335V35.704H153.311V38.56H150.335V44.368C150.335 45.008 150.463 45.456 150.719 45.712C150.975 45.968 151.407 46.096 152.015 46.096H153.335ZM161.914 35.536C163.21 35.536 164.37 35.808 165.394 36.352C166.434 36.896 167.25 37.688 167.842 38.728C168.434 39.752 168.73 40.96 168.73 42.352C168.73 43.744 168.434 44.952 167.842 45.976C167.25 47 166.434 47.792 165.394 48.352C164.37 48.896 163.21 49.168 161.914 49.168C160.618 49.168 159.45 48.896 158.41 48.352C157.386 47.792 156.578 47 155.986 45.976C155.394 44.952 155.098 43.744 155.098 42.352C155.098 40.96 155.394 39.752 155.986 38.728C156.578 37.688 157.386 36.896 158.41 36.352C159.45 35.808 160.618 35.536 161.914 35.536ZM161.914 38.464C160.97 38.464 160.17 38.8 159.514 39.472C158.858 40.128 158.53 41.088 158.53 42.352C158.53 43.616 158.858 44.584 159.514 45.256C160.17 45.912 160.97 46.24 161.914 46.24C162.858 46.24 163.658 45.912 164.314 45.256C164.97 44.584 165.298 43.616 165.298 42.352C165.298 41.088 164.97 40.128 164.314 39.472C163.658 38.8 162.858 38.464 161.914 38.464ZM174.506 38.248C175.002 37.4 175.658 36.736 176.474 36.256C177.29 35.76 178.202 35.512 179.21 35.512V39.136H178.226C175.746 39.136 174.506 40.288 174.506 42.592V49H171.122V35.704H174.506V38.248ZM193.587 41.848C193.587 42.184 193.547 42.568 193.467 43H183.723C183.771 44.184 184.091 45.056 184.683 45.616C185.275 46.176 186.011 46.456 186.891 46.456C187.675 46.456 188.323 46.264 188.835 45.88C189.363 45.496 189.699 44.976 189.843 44.32H193.419C193.243 45.248 192.867 46.08 192.291 46.816C191.715 47.552 190.971 48.128 190.059 48.544C189.163 48.96 188.163 49.168 187.059 49.168C185.763 49.168 184.611 48.896 183.603 48.352C182.595 47.792 181.811 47 181.251 45.976C180.691 44.952 180.411 43.744 180.411 42.352C180.411 40.96 180.691 39.752 181.251 38.728C181.811 37.688 182.595 36.896 183.603 36.352C184.611 35.808 185.763 35.536 187.059 35.536C188.371 35.536 189.515 35.808 190.491 36.352C191.483 36.896 192.243 37.648 192.771 38.608C193.315 39.552 193.587 40.632 193.587 41.848ZM190.179 41.512C190.227 40.424 189.939 39.6 189.315 39.04C188.707 38.48 187.955 38.2 187.059 38.2C186.147 38.2 185.379 38.48 184.755 39.04C184.131 39.6 183.787 40.424 183.723 41.512H190.179Z" fill="white"/>
<path d="M29.3741 26.7006C32.2323 24.2629 38.4846 23.2182 42.9505 26.7006C52.7755 21.8252 58.075 26.0041 59.385 28.9642C50.8105 36.0684 56.765 42.952 60.8141 45.5058C59.8665 51.1796 54.9972 55.2181 52.3099 56.763C52.0308 56.9235 51.7132 57.0055 51.3932 56.9705C49.254 56.7363 47.2147 55.0702 44.5582 54.9083C42.4017 54.777 39.313 56.7519 36.3412 56.977C35.9906 57.0036 35.6329 56.8995 35.331 56.7192C16.108 45.2431 26.539 29.1187 29.3741 26.7006Z" fill="white"/>
<path d="M42.9155 21.0971C42.5865 18.4045 43.6722 12.6155 50.647 11C51.0308 14.0597 50.0219 20.3627 42.9155 21.0971Z" fill="white"/>
</svg>
